<mxfile host="app.diagrams.net" modified="2023-07-26T10:53:51.311Z" agent="Mozilla/5.0 (Windows NT 10.0; Win64; x64) AppleWebKit/537.36 (KHTML, like Gecko) Chrome/114.0.0.0 Safari/537.36" etag="p9Xv1mwNzwpwpg9iCDML" version="21.6.5" type="google" pages="2">
  <diagram name="Page-1" id="iBWlm6ea-4I2EViiWKlT">
    <mxGraphModel grid="1" page="1" gridSize="10" guides="1" tooltips="1" connect="1" arrows="1" fold="1" pageScale="1" pageWidth="827" pageHeight="1169" math="0" shadow="0">
      <root>
        <mxCell id="0" />
        <mxCell id="1" parent="0" />
        <mxCell id="M0u7sEZvX7xl0_RKz_UU-1" value="Admin" style="shape=umlActor;verticalLabelPosition=bottom;verticalAlign=top;html=1;outlineConnect=0;" vertex="1" parent="1">
          <mxGeometry x="-20" y="40" width="30" height="60" as="geometry" />
        </mxCell>
        <mxCell id="M0u7sEZvX7xl0_RKz_UU-2" value="system user" style="shape=umlActor;verticalLabelPosition=bottom;verticalAlign=top;html=1;outlineConnect=0;" vertex="1" parent="1">
          <mxGeometry x="-20" y="350" width="30" height="60" as="geometry" />
        </mxCell>
        <mxCell id="M0u7sEZvX7xl0_RKz_UU-3" value="customer" style="shape=umlActor;verticalLabelPosition=bottom;verticalAlign=top;html=1;outlineConnect=0;" vertex="1" parent="1">
          <mxGeometry x="560" y="30" width="30" height="60" as="geometry" />
        </mxCell>
        <mxCell id="M0u7sEZvX7xl0_RKz_UU-4" value="shopkeepers" style="shape=umlActor;verticalLabelPosition=bottom;verticalAlign=top;html=1;outlineConnect=0;" vertex="1" parent="1">
          <mxGeometry x="580" y="240" width="30" height="60" as="geometry" />
        </mxCell>
        <mxCell id="M0u7sEZvX7xl0_RKz_UU-5" value="Online book shopping" style="ellipse;whiteSpace=wrap;html=1;" vertex="1" parent="1">
          <mxGeometry x="160" y="-20" width="240" height="30" as="geometry" />
        </mxCell>
        <mxCell id="M0u7sEZvX7xl0_RKz_UU-7" style="edgeStyle=orthogonalEdgeStyle;rounded=0;orthogonalLoop=1;jettySize=auto;html=1;exitX=0.5;exitY=1;exitDx=0;exitDy=0;" edge="1" parent="1" source="M0u7sEZvX7xl0_RKz_UU-5" target="M0u7sEZvX7xl0_RKz_UU-5">
          <mxGeometry relative="1" as="geometry" />
        </mxCell>
        <mxCell id="Osw5SRVrTq1gMJ9Peh6J-1" value="manage users and full application" style="ellipse;whiteSpace=wrap;html=1;" vertex="1" parent="1">
          <mxGeometry x="70" y="10" width="190" height="30" as="geometry" />
        </mxCell>
        <mxCell id="Osw5SRVrTq1gMJ9Peh6J-2" value="make payment" style="ellipse;whiteSpace=wrap;html=1;" vertex="1" parent="1">
          <mxGeometry x="330" y="10" width="130" height="30" as="geometry" />
        </mxCell>
        <mxCell id="Osw5SRVrTq1gMJ9Peh6J-4" style="edgeStyle=orthogonalEdgeStyle;rounded=0;orthogonalLoop=1;jettySize=auto;html=1;exitX=0.5;exitY=1;exitDx=0;exitDy=0;" edge="1" parent="1" source="Osw5SRVrTq1gMJ9Peh6J-2" target="Osw5SRVrTq1gMJ9Peh6J-2">
          <mxGeometry relative="1" as="geometry" />
        </mxCell>
        <mxCell id="Osw5SRVrTq1gMJ9Peh6J-5" value="search books&amp;nbsp;" style="ellipse;whiteSpace=wrap;html=1;" vertex="1" parent="1">
          <mxGeometry x="330" y="45" width="130" height="30" as="geometry" />
        </mxCell>
        <mxCell id="Osw5SRVrTq1gMJ9Peh6J-6" value="Manage books" style="ellipse;whiteSpace=wrap;html=1;" vertex="1" parent="1">
          <mxGeometry x="100" y="45" width="150" height="20" as="geometry" />
        </mxCell>
        <mxCell id="Osw5SRVrTq1gMJ9Peh6J-7" value="view payment history" style="ellipse;whiteSpace=wrap;html=1;" vertex="1" parent="1">
          <mxGeometry x="330" y="80" width="130" height="20" as="geometry" />
        </mxCell>
        <mxCell id="Osw5SRVrTq1gMJ9Peh6J-8" value="Mange receipt" style="ellipse;whiteSpace=wrap;html=1;" vertex="1" parent="1">
          <mxGeometry x="100" y="70" width="150" height="20" as="geometry" />
        </mxCell>
        <mxCell id="Osw5SRVrTq1gMJ9Peh6J-9" style="edgeStyle=orthogonalEdgeStyle;rounded=0;orthogonalLoop=1;jettySize=auto;html=1;exitX=0.5;exitY=1;exitDx=0;exitDy=0;" edge="1" parent="1" source="Osw5SRVrTq1gMJ9Peh6J-8" target="Osw5SRVrTq1gMJ9Peh6J-8">
          <mxGeometry relative="1" as="geometry" />
        </mxCell>
        <mxCell id="Osw5SRVrTq1gMJ9Peh6J-10" value="update my profile" style="ellipse;whiteSpace=wrap;html=1;" vertex="1" parent="1">
          <mxGeometry x="180" y="150" width="190" height="20" as="geometry" />
        </mxCell>
        <mxCell id="Osw5SRVrTq1gMJ9Peh6J-11" value="login and logout from system" style="ellipse;whiteSpace=wrap;html=1;" vertex="1" parent="1">
          <mxGeometry x="180" y="110" width="190" height="30" as="geometry" />
        </mxCell>
        <mxCell id="Osw5SRVrTq1gMJ9Peh6J-12" value="change account password" style="ellipse;whiteSpace=wrap;html=1;" vertex="1" parent="1">
          <mxGeometry x="180" y="180" width="180" height="20" as="geometry" />
        </mxCell>
        <mxCell id="Osw5SRVrTq1gMJ9Peh6J-13" value="Manage sales" style="ellipse;whiteSpace=wrap;html=1;" vertex="1" parent="1">
          <mxGeometry x="70" y="210" width="150" height="40" as="geometry" />
        </mxCell>
        <mxCell id="Osw5SRVrTq1gMJ9Peh6J-14" value="Manage inventory stock" style="ellipse;whiteSpace=wrap;html=1;" vertex="1" parent="1">
          <mxGeometry x="70" y="260" width="150" height="40" as="geometry" />
        </mxCell>
        <mxCell id="Osw5SRVrTq1gMJ9Peh6J-15" value="Manage publications" style="ellipse;whiteSpace=wrap;html=1;" vertex="1" parent="1">
          <mxGeometry x="70" y="320" width="150" height="30" as="geometry" />
        </mxCell>
        <mxCell id="Osw5SRVrTq1gMJ9Peh6J-16" value="Manage inventory" style="ellipse;whiteSpace=wrap;html=1;" vertex="1" parent="1">
          <mxGeometry x="340" y="210" width="120" height="40" as="geometry" />
        </mxCell>
        <mxCell id="Osw5SRVrTq1gMJ9Peh6J-17" value="create invoice" style="ellipse;whiteSpace=wrap;html=1;" vertex="1" parent="1">
          <mxGeometry x="340" y="260" width="120" height="40" as="geometry" />
        </mxCell>
        <mxCell id="Osw5SRVrTq1gMJ9Peh6J-18" value="Manage bills" style="ellipse;whiteSpace=wrap;html=1;" vertex="1" parent="1">
          <mxGeometry x="335" y="320" width="125" height="30" as="geometry" />
        </mxCell>
        <mxCell id="Osw5SRVrTq1gMJ9Peh6J-29" value="" style="endArrow=none;html=1;rounded=0;entryX=0;entryY=0.5;entryDx=0;entryDy=0;exitX=0.189;exitY=0.933;exitDx=0;exitDy=0;exitPerimeter=0;" edge="1" parent="1" source="Osw5SRVrTq1gMJ9Peh6J-1" target="M0u7sEZvX7xl0_RKz_UU-5">
          <mxGeometry width="50" height="50" relative="1" as="geometry">
            <mxPoint x="240" y="230" as="sourcePoint" />
            <mxPoint x="290" y="180" as="targetPoint" />
            <Array as="points">
              <mxPoint y="60" />
            </Array>
          </mxGeometry>
        </mxCell>
        <mxCell id="Osw5SRVrTq1gMJ9Peh6J-30" value="" style="endArrow=none;html=1;rounded=0;entryX=0.06;entryY=0.85;entryDx=0;entryDy=0;entryPerimeter=0;exitX=0;exitY=0.5;exitDx=0;exitDy=0;" edge="1" parent="1" source="Osw5SRVrTq1gMJ9Peh6J-8" target="Osw5SRVrTq1gMJ9Peh6J-6">
          <mxGeometry width="50" height="50" relative="1" as="geometry">
            <mxPoint x="240" y="230" as="sourcePoint" />
            <mxPoint x="290" y="180" as="targetPoint" />
            <Array as="points">
              <mxPoint y="90" />
            </Array>
          </mxGeometry>
        </mxCell>
        <mxCell id="Osw5SRVrTq1gMJ9Peh6J-32" value="" style="endArrow=none;html=1;rounded=0;exitX=0;exitY=0;exitDx=0;exitDy=0;" edge="1" parent="1" source="Osw5SRVrTq1gMJ9Peh6J-10" target="Osw5SRVrTq1gMJ9Peh6J-11">
          <mxGeometry width="50" height="50" relative="1" as="geometry">
            <mxPoint x="240" y="230" as="sourcePoint" />
            <mxPoint x="290" y="180" as="targetPoint" />
            <Array as="points">
              <mxPoint y="90" />
            </Array>
          </mxGeometry>
        </mxCell>
        <mxCell id="Osw5SRVrTq1gMJ9Peh6J-33" value="" style="endArrow=none;html=1;rounded=0;entryX=0;entryY=0;entryDx=0;entryDy=0;exitX=0.26;exitY=0.075;exitDx=0;exitDy=0;exitPerimeter=0;" edge="1" parent="1" source="Osw5SRVrTq1gMJ9Peh6J-13" target="Osw5SRVrTq1gMJ9Peh6J-12">
          <mxGeometry width="50" height="50" relative="1" as="geometry">
            <mxPoint x="240" y="230" as="sourcePoint" />
            <mxPoint x="290" y="180" as="targetPoint" />
            <Array as="points">
              <mxPoint y="90" />
            </Array>
          </mxGeometry>
        </mxCell>
        <mxCell id="Osw5SRVrTq1gMJ9Peh6J-34" value="" style="endArrow=none;html=1;rounded=0;exitX=0.013;exitY=0.25;exitDx=0;exitDy=0;exitPerimeter=0;entryX=0;entryY=0.5;entryDx=0;entryDy=0;" edge="1" parent="1" source="Osw5SRVrTq1gMJ9Peh6J-14" target="Osw5SRVrTq1gMJ9Peh6J-15">
          <mxGeometry width="50" height="50" relative="1" as="geometry">
            <mxPoint x="240" y="230" as="sourcePoint" />
            <mxPoint x="290" y="180" as="targetPoint" />
            <Array as="points">
              <mxPoint y="90" />
            </Array>
          </mxGeometry>
        </mxCell>
        <mxCell id="Osw5SRVrTq1gMJ9Peh6J-35" value="" style="endArrow=none;html=1;rounded=0;entryX=0;entryY=0.5;entryDx=0;entryDy=0;exitX=0;exitY=0.5;exitDx=0;exitDy=0;" edge="1" parent="1" source="Osw5SRVrTq1gMJ9Peh6J-10" target="Osw5SRVrTq1gMJ9Peh6J-11">
          <mxGeometry width="50" height="50" relative="1" as="geometry">
            <mxPoint x="210" y="230" as="sourcePoint" />
            <mxPoint x="180" y="140" as="targetPoint" />
            <Array as="points">
              <mxPoint x="80" y="160" />
              <mxPoint y="350" />
              <mxPoint x="70" y="150" />
            </Array>
          </mxGeometry>
        </mxCell>
        <mxCell id="Osw5SRVrTq1gMJ9Peh6J-36" value="" style="endArrow=none;html=1;rounded=0;entryX=0;entryY=0.5;entryDx=0;entryDy=0;exitX=0;exitY=0.75;exitDx=0;exitDy=0;exitPerimeter=0;" edge="1" parent="1" source="Osw5SRVrTq1gMJ9Peh6J-13" target="Osw5SRVrTq1gMJ9Peh6J-12">
          <mxGeometry width="50" height="50" relative="1" as="geometry">
            <mxPoint x="210" y="230" as="sourcePoint" />
            <mxPoint x="260" y="180" as="targetPoint" />
            <Array as="points">
              <mxPoint y="350" />
            </Array>
          </mxGeometry>
        </mxCell>
        <mxCell id="Osw5SRVrTq1gMJ9Peh6J-37" value="" style="endArrow=none;html=1;rounded=0;exitX=1;exitY=0.3333333333333333;exitDx=0;exitDy=0;exitPerimeter=0;" edge="1" parent="1" source="M0u7sEZvX7xl0_RKz_UU-2">
          <mxGeometry width="50" height="50" relative="1" as="geometry">
            <mxPoint x="30" y="380" as="sourcePoint" />
            <mxPoint x="80" y="330" as="targetPoint" />
          </mxGeometry>
        </mxCell>
        <mxCell id="Osw5SRVrTq1gMJ9Peh6J-41" value="" style="endArrow=none;html=1;rounded=0;exitX=-0.007;exitY=0.75;exitDx=0;exitDy=0;exitPerimeter=0;" edge="1" parent="1" source="Osw5SRVrTq1gMJ9Peh6J-14">
          <mxGeometry width="50" height="50" relative="1" as="geometry">
            <mxPoint x="210" y="230" as="sourcePoint" />
            <mxPoint x="70" y="330" as="targetPoint" />
            <Array as="points">
              <mxPoint y="380" />
            </Array>
          </mxGeometry>
        </mxCell>
        <mxCell id="Osw5SRVrTq1gMJ9Peh6J-42" value="" style="endArrow=none;html=1;rounded=0;exitX=1;exitY=0.5;exitDx=0;exitDy=0;" edge="1" parent="1" source="Osw5SRVrTq1gMJ9Peh6J-2" target="M0u7sEZvX7xl0_RKz_UU-3">
          <mxGeometry width="50" height="50" relative="1" as="geometry">
            <mxPoint x="390" y="230" as="sourcePoint" />
            <mxPoint x="440" y="180" as="targetPoint" />
          </mxGeometry>
        </mxCell>
        <mxCell id="Osw5SRVrTq1gMJ9Peh6J-43" value="" style="endArrow=none;html=1;rounded=0;exitX=1;exitY=0.5;exitDx=0;exitDy=0;" edge="1" parent="1" source="Osw5SRVrTq1gMJ9Peh6J-5">
          <mxGeometry width="50" height="50" relative="1" as="geometry">
            <mxPoint x="390" y="230" as="sourcePoint" />
            <mxPoint x="560" y="60" as="targetPoint" />
          </mxGeometry>
        </mxCell>
        <mxCell id="Osw5SRVrTq1gMJ9Peh6J-44" value="" style="endArrow=none;html=1;rounded=0;exitX=1;exitY=0.5;exitDx=0;exitDy=0;" edge="1" parent="1" source="Osw5SRVrTq1gMJ9Peh6J-7">
          <mxGeometry width="50" height="50" relative="1" as="geometry">
            <mxPoint x="390" y="230" as="sourcePoint" />
            <mxPoint x="560" y="60" as="targetPoint" />
          </mxGeometry>
        </mxCell>
        <mxCell id="Osw5SRVrTq1gMJ9Peh6J-45" value="" style="endArrow=none;html=1;rounded=0;exitX=1;exitY=0.5;exitDx=0;exitDy=0;" edge="1" parent="1" source="Osw5SRVrTq1gMJ9Peh6J-11" target="M0u7sEZvX7xl0_RKz_UU-3">
          <mxGeometry width="50" height="50" relative="1" as="geometry">
            <mxPoint x="390" y="230" as="sourcePoint" />
            <mxPoint x="440" y="180" as="targetPoint" />
          </mxGeometry>
        </mxCell>
        <mxCell id="Osw5SRVrTq1gMJ9Peh6J-46" value="" style="endArrow=none;html=1;rounded=0;exitX=1;exitY=0.5;exitDx=0;exitDy=0;" edge="1" parent="1" source="Osw5SRVrTq1gMJ9Peh6J-10">
          <mxGeometry width="50" height="50" relative="1" as="geometry">
            <mxPoint x="390" y="230" as="sourcePoint" />
            <mxPoint x="560" y="60" as="targetPoint" />
          </mxGeometry>
        </mxCell>
        <mxCell id="Osw5SRVrTq1gMJ9Peh6J-47" value="" style="endArrow=none;html=1;rounded=0;exitX=1;exitY=0.5;exitDx=0;exitDy=0;" edge="1" parent="1" source="Osw5SRVrTq1gMJ9Peh6J-12">
          <mxGeometry width="50" height="50" relative="1" as="geometry">
            <mxPoint x="390" y="230" as="sourcePoint" />
            <mxPoint x="560" y="70" as="targetPoint" />
          </mxGeometry>
        </mxCell>
        <mxCell id="Osw5SRVrTq1gMJ9Peh6J-48" value="" style="endArrow=none;html=1;rounded=0;entryX=0.5;entryY=0.5;entryDx=0;entryDy=0;entryPerimeter=0;exitX=0.958;exitY=0.85;exitDx=0;exitDy=0;exitPerimeter=0;" edge="1" parent="1" source="Osw5SRVrTq1gMJ9Peh6J-16" target="M0u7sEZvX7xl0_RKz_UU-4">
          <mxGeometry width="50" height="50" relative="1" as="geometry">
            <mxPoint x="390" y="230" as="sourcePoint" />
            <mxPoint x="440" y="180" as="targetPoint" />
          </mxGeometry>
        </mxCell>
        <mxCell id="Osw5SRVrTq1gMJ9Peh6J-49" value="" style="endArrow=none;html=1;rounded=0;exitX=1;exitY=0.75;exitDx=0;exitDy=0;exitPerimeter=0;" edge="1" parent="1" source="Osw5SRVrTq1gMJ9Peh6J-17" target="M0u7sEZvX7xl0_RKz_UU-4">
          <mxGeometry width="50" height="50" relative="1" as="geometry">
            <mxPoint x="390" y="230" as="sourcePoint" />
            <mxPoint x="440" y="180" as="targetPoint" />
          </mxGeometry>
        </mxCell>
        <mxCell id="Osw5SRVrTq1gMJ9Peh6J-50" value="" style="endArrow=none;html=1;rounded=0;exitX=1;exitY=0.5;exitDx=0;exitDy=0;" edge="1" parent="1" source="Osw5SRVrTq1gMJ9Peh6J-18" target="M0u7sEZvX7xl0_RKz_UU-4">
          <mxGeometry width="50" height="50" relative="1" as="geometry">
            <mxPoint x="390" y="230" as="sourcePoint" />
            <mxPoint x="440" y="180" as="targetPoint" />
          </mxGeometry>
        </mxCell>
        <mxCell id="Osw5SRVrTq1gMJ9Peh6J-51" value="" style="endArrow=none;html=1;rounded=0;entryX=0;entryY=0.3333333333333333;entryDx=0;entryDy=0;entryPerimeter=0;exitX=1;exitY=0.5;exitDx=0;exitDy=0;" edge="1" parent="1" source="Osw5SRVrTq1gMJ9Peh6J-12" target="M0u7sEZvX7xl0_RKz_UU-4">
          <mxGeometry width="50" height="50" relative="1" as="geometry">
            <mxPoint x="390" y="230" as="sourcePoint" />
            <mxPoint x="440" y="180" as="targetPoint" />
          </mxGeometry>
        </mxCell>
        <mxCell id="Osw5SRVrTq1gMJ9Peh6J-52" value="" style="endArrow=none;html=1;rounded=0;exitX=1;exitY=0.5;exitDx=0;exitDy=0;" edge="1" parent="1" source="Osw5SRVrTq1gMJ9Peh6J-10">
          <mxGeometry width="50" height="50" relative="1" as="geometry">
            <mxPoint x="390" y="230" as="sourcePoint" />
            <mxPoint x="580" y="260" as="targetPoint" />
          </mxGeometry>
        </mxCell>
        <mxCell id="Osw5SRVrTq1gMJ9Peh6J-53" value="" style="endArrow=none;html=1;rounded=0;exitX=1;exitY=0.5;exitDx=0;exitDy=0;" edge="1" parent="1" source="Osw5SRVrTq1gMJ9Peh6J-11">
          <mxGeometry width="50" height="50" relative="1" as="geometry">
            <mxPoint x="390" y="175" as="sourcePoint" />
            <mxPoint x="580" y="260" as="targetPoint" />
          </mxGeometry>
        </mxCell>
        <mxCell id="xdkwsVTmzkLPSasYxvp1-1" value="" style="swimlane;startSize=0;" vertex="1" parent="1">
          <mxGeometry x="50" y="-30" width="470" height="410" as="geometry" />
        </mxCell>
      </root>
    </mxGraphModel>
  </diagram>
  <diagram id="svU2cHYOuex-Ogm64YT2" name="Page-2">
    <mxGraphModel grid="1" page="1" gridSize="10" guides="1" tooltips="1" connect="1" arrows="1" fold="1" pageScale="1" pageWidth="827" pageHeight="1169" math="0" shadow="0">
      <root>
        <mxCell id="0" />
        <mxCell id="1" parent="0" />
      </root>
    </mxGraphModel>
  </diagram>
</mxfile>
